<svg xmlns="http://www.w3.org/2000/svg" width="168" height="50.86" viewBox="0 0 168 50.86">
  <g id="logo" transform="translate(-312.005 -331.437)">
    <g id="Group_2" data-name="Group 2" transform="translate(366.642 375.463)">
      <g id="Group_1" data-name="Group 1" transform="translate(0 0)">
        <path id="Path_1" data-name="Path 1" d="M536.291,508.039v.645a.117.117,0,0,1-.115.115h-1.89v5.759a.112.112,0,0,1-.115.115h-.716V508.8h-1.979v-.645a.117.117,0,0,1,.115-.115Z" transform="translate(-531.477 -508.004)" fill="#3f505d"/>
        <path id="Path_2" data-name="Path 2" d="M571.982,509.47v1.678a.561.561,0,0,1,.433-.177h2.906v.645a.117.117,0,0,1-.115.115h-3.224v1.511a.671.671,0,0,0,.671.672h2.862a.117.117,0,0,1,.115.115v.645h-2.977a1.5,1.5,0,0,1-1.5-1.5v-3.63a1.5,1.5,0,0,1,1.5-1.5h2.977v.645a.116.116,0,0,1-.115.115h-2.862A.671.671,0,0,0,571.982,509.47Z" transform="translate(-561.24 -508.004)" fill="#3f505d"/>
        <path id="Path_3" data-name="Path 3" d="M610.014,509.541a1.5,1.5,0,0,1,1.5-1.5h2.915v.645a.117.117,0,0,1-.115.115h-2.8a.671.671,0,0,0-.672.672v3.772a.671.671,0,0,0,.672.672h2.8a.117.117,0,0,1,.115.115v.645h-2.915a1.506,1.506,0,0,1-1.5-1.5Z" transform="translate(-590.394 -508.004)" fill="#3f505d"/>
        <path id="Path_4" data-name="Path 4" d="M654.061,508.039v6.634h-.715a.117.117,0,0,1-.115-.115v-2.827h-3.171v2.827a.117.117,0,0,1-.115.115h-.716v-6.634h.716a.117.117,0,0,1,.115.115v2.817h3.171v-2.817a.117.117,0,0,1,.115-.115Z" transform="translate(-619.812 -508.004)" fill="#3f505d"/>
        <path id="Path_5" data-name="Path 5" d="M695.009,513.472c-.088-.689-.088-1.246-.132-1.873v-3.445a.117.117,0,0,1,.115-.115h.716v6.634h-.768a.217.217,0,0,1-.168-.106l-3.021-5.626a.3.3,0,0,0-.239-.142h-.15v5.759a.117.117,0,0,1-.115.115h-.716v-6.519a.117.117,0,0,1,.115-.115h1.007a.937.937,0,0,1,.751.451l1.8,3.4Z" transform="translate(-650.795 -508.004)" fill="#3f505d"/>
        <path id="Path_6" data-name="Path 6" d="M734.678,514.6a1.5,1.5,0,0,1-1.5-1.5v-3.7a1.5,1.5,0,0,1,1.5-1.5h2a1.506,1.506,0,0,1,1.5,1.5v3.7a1.506,1.506,0,0,1-1.5,1.5Zm-.671-5.273v3.842a.671.671,0,0,0,.671.671h2a.671.671,0,0,0,.671-.671v-3.842a.671.671,0,0,0-.671-.671h-2A.671.671,0,0,0,734.007,509.329Z" transform="translate(-682.787 -507.898)" fill="#3f505d"/>
        <path id="Path_7" data-name="Path 7" d="M775.113,513.145v-4.991a.118.118,0,0,1,.115-.115h.715v5.185a.689.689,0,0,0,.68.689h2.756a.117.117,0,0,1,.115.115v.645h-2.871A1.525,1.525,0,0,1,775.113,513.145Z" transform="translate(-714.247 -508.004)" fill="#3f505d"/>
        <path id="Path_8" data-name="Path 8" d="M814.628,514.6a1.5,1.5,0,0,1-1.5-1.5v-3.7a1.5,1.5,0,0,1,1.5-1.5h2a1.506,1.506,0,0,1,1.5,1.5v3.7a1.506,1.506,0,0,1-1.5,1.5Zm-.671-5.273v3.842a.671.671,0,0,0,.671.671h2a.671.671,0,0,0,.671-.671v-3.842a.671.671,0,0,0-.671-.671h-2A.671.671,0,0,0,813.957,509.329Z" transform="translate(-742.763 -507.898)" fill="#3f505d"/>
        <path id="Path_9" data-name="Path 9" d="M855.1,513.1v-3.7a1.5,1.5,0,0,1,1.5-1.5h3.03v.645a.119.119,0,0,1-.124.115H856.6a.671.671,0,0,0-.671.671v3.842a.671.671,0,0,0,.671.671h1.828a.743.743,0,0,0,.751-.671v-1.6h-1.608a.117.117,0,0,1-.115-.115v-.645h2.359a.117.117,0,0,1,.115.115v2.262a1.367,1.367,0,0,1-1.5,1.413H856.6A1.5,1.5,0,0,1,855.1,513.1Z" transform="translate(-774.253 -507.898)" fill="#3f505d"/>
        <path id="Path_10" data-name="Path 10" d="M897.038,514.558v-6.519h.716a.117.117,0,0,1,.115.115v6.519h-.715A.118.118,0,0,1,897.038,514.558Z" transform="translate(-805.712 -508.004)" fill="#3f505d"/>
        <path id="Path_11" data-name="Path 11" d="M923.683,509.47v1.678a.56.56,0,0,1,.433-.177h2.906v.645a.117.117,0,0,1-.115.115h-3.224v1.511a.671.671,0,0,0,.671.672h2.862a.117.117,0,0,1,.115.115v.645h-2.977a1.5,1.5,0,0,1-1.5-1.5v-3.63a1.5,1.5,0,0,1,1.5-1.5h2.977v.645a.117.117,0,0,1-.115.115h-2.862A.671.671,0,0,0,923.683,509.47Z" transform="translate(-825.077 -508.004)" fill="#3f505d"/>
        <path id="Path_12" data-name="Path 12" d="M964.461,513.913a.656.656,0,0,0,.654-.672v-.8a.237.237,0,0,0-.159-.212l-3.392-1.131a.758.758,0,0,1-.486-.671v-1.051a1.367,1.367,0,0,1,1.5-1.334h3.145v.645a.111.111,0,0,1-.115.115h-3.03a.629.629,0,0,0-.68.61v.857a.24.24,0,0,0,.159.221l3.392,1.122a.746.746,0,0,1,.459.68v.945a1.41,1.41,0,0,1-1.449,1.44h-3.383v-.645a.111.111,0,0,1,.115-.115Z" transform="translate(-853.753 -508.004)" fill="#3f505d"/>
      </g>
    </g>
    <g id="Group_4" data-name="Group 4" transform="translate(366.642 335.96)">
      <g id="Group_3" data-name="Group 3" transform="translate(0)">
        <path id="Path_13" data-name="Path 13" d="M542.232,380.472h1.162v4.651h-1.161a10.4,10.4,0,0,1-7.667-3.413,11.749,11.749,0,0,1-3.088-8.017V349.542h4.651v6.9a6.6,6.6,0,0,1,.767-.037h6.5v4.651h-6.5a1.567,1.567,0,0,0-.717.121,1,1,0,0,0-.049.21v12.308C536.128,377.518,538.956,380.472,542.232,380.472Z" transform="translate(-531.477 -349.542)" fill="#3f505d"/>
        <path id="Path_14" data-name="Path 14" d="M603.619,404.233v-17.8a11.737,11.737,0,0,1,3.083-8.007,10.392,10.392,0,0,1,7.657-3.408h1.161v4.648H614.36c-3.271,0-6.093,2.949-6.093,6.767v17.8Z" transform="translate(-585.596 -368.651)" fill="#3f505d"/>
        <path id="Path_15" data-name="Path 15" d="M676.32,403.039h4.645v22.216H676.32Z" transform="translate(-640.135 -389.674)" fill="#3f505d"/>
        <path id="Path_16" data-name="Path 16" d="M726.506,403.021a12.531,12.531,0,0,1-3.938-3.22,13.789,13.789,0,0,1-.908-1.24,16.716,16.716,0,0,1,.5-18.572q.2-.269.412-.528a12.52,12.52,0,0,1,3.938-3.22,10.99,10.99,0,0,1,4.964-1.222,10.48,10.48,0,0,1,8.665,4.089l1.389,1.861-3.723,2.778-1.389-1.861a6.125,6.125,0,0,0-4.927-2.221,6.974,6.974,0,0,0-5.443,2.846,11.483,11.483,0,0,0-2.313,7.138,11.63,11.63,0,0,0,1.931,6.607,7.139,7.139,0,0,0,5.824,3.341,6.126,6.126,0,0,0,4.927-2.221l1.389-1.861,3.723,2.777-1.389,1.861a10.611,10.611,0,0,1-8.665,4.089A10.748,10.748,0,0,1,726.506,403.021Z" transform="translate(-672.215 -368.655)" fill="#3f505d"/>
        <path id="Path_17" data-name="Path 17" d="M845.117,380.472h1.161v4.651h-1.161a10.4,10.4,0,0,1-7.666-3.413,11.749,11.749,0,0,1-3.089-8.017V349.542h4.651v6.9a6.614,6.614,0,0,1,.767-.037h6.5v4.651h-6.5a1.567,1.567,0,0,0-.717.121,1,1,0,0,0-.05.21v12.308C839.013,377.518,841.841,380.472,845.117,380.472Z" transform="translate(-758.694 -349.542)" fill="#3f505d"/>
        <path id="Path_18" data-name="Path 18" d="M902.42,401.772a8.1,8.1,0,0,1,0-13.122,11.912,11.912,0,0,1,7.413-2.468l5.661,0a1.223,1.223,0,0,0,.337-.053,1.55,1.55,0,0,0,.114-.569v-1.507c0-2.2-2.346-4.375-5.708-4.375a6.153,6.153,0,0,0-4.962,2.23l-1.392,1.865-3.73-2.783,1.391-1.865a10.769,10.769,0,0,1,8.692-4.1,11.171,11.171,0,0,1,7.172,2.5,8.484,8.484,0,0,1,3.19,6.526V395.21a8.379,8.379,0,0,1-3.351,6.561,12.371,12.371,0,0,1-14.828,0Zm7.415-10.937a7.289,7.289,0,0,0-4.52,1.458,3.469,3.469,0,0,0,0,5.834,7.732,7.732,0,0,0,9.039,0,3.745,3.745,0,0,0,1.592-2.917v-4.387a4.27,4.27,0,0,1-.539.008Z" transform="translate(-807.235 -368.655)" fill="#3f505d"/>
      </g>
      <path id="Path_19" data-name="Path 19" d="M680.978,377.361a2.316,2.316,0,1,1-2.316-2.316A2.316,2.316,0,0,1,680.978,377.361Z" transform="translate(-640.154 -368.674)" fill="#ed4718"/>
    </g>
    <path id="Path_20" data-name="Path 20" d="M360.35,337.06a6.417,6.417,0,0,0-11.608-2.909h0a6.461,6.461,0,0,1-8.135,1.119,6.4,6.4,0,0,0-5.073-1.592l-.032,0-.031,0a6.394,6.394,0,0,0-4.293,2.455,6.4,6.4,0,0,1-4.117,2.238,6.552,6.552,0,0,1-4.853-1.3l-.008,0a6.41,6.41,0,1,0,1.254,9.151l.005.005a6.551,6.551,0,0,1,8.806-1.18q.238.189.493.355a6.423,6.423,0,0,1,.743,8.347,6.41,6.41,0,0,0,1.117,9.071,6.393,6.393,0,0,1,2.239,4.112,6.581,6.581,0,0,1-1.3,4.85v0a6.418,6.418,0,1,0,9.156-1.251h0a6.539,6.539,0,0,1-1.205-8.764,6.4,6.4,0,0,0-1.131-9.156,6.451,6.451,0,0,1-1.227-8.367,6.356,6.356,0,0,0,.471-.61,6.454,6.454,0,0,1,8.173-.942,6.416,6.416,0,0,0,10.554-5.647Z" transform="translate(0 0)" fill="#ed7f13" fill-rule="evenodd"/>
    <path id="Path_21" data-name="Path 21" d="M355.356,340.348a6.4,6.4,0,0,0-4.746,2.1h0a6.461,6.461,0,0,1-8.211.109,6.4,6.4,0,0,0-4.837-2.2H337.5a6.4,6.4,0,0,0-4.594,1.939,6.4,6.4,0,0,1-4.332,1.684,6.549,6.549,0,0,1-4.655-1.885h-.008a6.41,6.41,0,1,0,.115,9.235l0,.006a6.552,6.552,0,0,1,8.89-.082q.211.215.441.41a6.422,6.422,0,0,1-.3,8.379,6.41,6.41,0,0,0-.011,9.129,6.386,6.386,0,0,1,1.721,4.362,6.58,6.58,0,0,1-1.886,4.652v0a6.416,6.416,0,1,0,9.241-.116h0a6.538,6.538,0,0,1-.121-8.839,6.4,6.4,0,0,0,.013-9.231,6.45,6.45,0,0,1-.185-8.454,6.451,6.451,0,0,0,.519-.52,6.441,6.441,0,0,1,8.25.043,6.414,6.414,0,1,0,4.756-10.715Z" transform="translate(-0.825 -6.685)" fill="#ed4718" fill-rule="evenodd"/>
  </g>
</svg>
